<?xml version="1.0" standalone="no"?>
<!DOCTYPE svg PUBLIC "-//W3C//DTD SVG 20010904//EN"
 "http://www.w3.org/TR/2001/REC-SVG-20010904/DTD/svg10.dtd">
<svg version="1.0" xmlns="http://www.w3.org/2000/svg"
 width="200.000000pt" height="200.000000pt" viewBox="0 0 200.000000 200.000000"
 preserveAspectRatio="xMidYMid meet">
<metadata>
Created by potrace 1.11, written by Peter Selinger 2001-2013
</metadata>
<g transform="translate(0.000000,200.000000) scale(0.100000,-0.100000)"
fill="#000000" stroke="none">
<path d="M2 1453 c4 -529 4 -550 25 -609 59 -169 168 -317 343 -464 36 -30 67
-58 68 -62 2 -5 9 -8 16 -8 7 0 21 -8 32 -18 29 -27 111 -82 122 -82 6 0 12
-4 14 -8 7 -17 259 -149 339 -177 35 -13 46 -12 85 1 25 8 60 24 77 35 18 10
40 19 49 19 9 0 18 4 20 8 2 5 36 26 76 47 72 38 73 38 110 22 100 -44 212
-43 302 3 75 38 121 86 161 167 25 50 31 75 32 130 0 37 -3 84 -7 103 -4 19
-8 40 -8 45 0 6 18 41 41 80 22 38 41 75 41 82 0 7 4 13 8 13 5 0 9 6 9 13 1
6 9 35 19 62 16 45 18 103 21 598 l4 547 -1001 0 -1001 0 3 -547z m1696 -13
l-3 -505 -30 -60 c-24 -47 -34 -59 -50 -57 -11 2 -54 4 -96 4 -61 1 -87 -4
-132 -25 -129 -59 -207 -174 -211 -312 -1 -41 -6 -79 -11 -84 -19 -18 -162
-90 -168 -85 -3 3 -2 16 3 29 5 13 6 25 4 28 -7 6 -6 1555 0 1565 2 4 160 8
351 7 l346 0 -3 -505z m-124 -709 c13 -2 -158 -164 -206 -196 -24 -16 -48 -34
-53 -41 -6 -6 -21 -14 -34 -19 -22 -7 -23 -6 -16 36 10 61 31 103 73 145 67
67 131 88 236 75z m210 -276 c-11 -153 -149 -262 -301 -239 -24 3 -43 9 -43
13 0 4 28 27 62 51 34 24 73 53 86 64 75 62 111 95 147 133 21 23 42 40 46 37
4 -2 6 -29 3 -59z"/>
<path d="M1072 1881 c-21 -13 -31 -73 -18 -112 8 -26 17 -35 37 -37 32 -4 48
14 53 59 7 69 -30 117 -72 90z m48 -35 c10 -29 3 -88 -13 -98 -20 -12 -38 17
-39 60 0 22 3 45 6 51 12 19 36 12 46 -13z"/>
<path d="M1236 1881 c-14 -5 -16 -10 -8 -15 7 -4 12 -4 12 1 0 4 4 2 9 -6 14
-21 1 -104 -18 -118 -13 -10 -8 -12 32 -13 30 0 46 4 42 10 -3 6 -13 10 -21
10 -12 0 -15 11 -13 48 4 95 2 98 -35 83z"/>
<path d="M1402 1882 c-18 -12 -29 -61 -22 -101 13 -81 91 -67 93 16 2 70 -31
110 -71 85z m49 -51 c7 -34 -6 -91 -21 -91 -27 0 -43 71 -27 114 11 28 40 14
48 -23z"/>
<path d="M1568 1883 c-10 -2 -18 -9 -18 -15 0 -5 7 -8 15 -4 17 6 17 6 20 -49
2 -49 -3 -65 -21 -65 -8 0 -14 -4 -14 -10 0 -5 21 -10 46 -10 27 0 43 4 39 10
-3 6 -12 10 -19 10 -10 0 -13 16 -12 58 1 31 0 63 -2 70 -4 12 -6 13 -34 5z"/>
<path d="M1078 1573 c-10 -2 -18 -9 -18 -15 0 -5 7 -8 15 -4 12 4 15 -5 15
-54 0 -46 -3 -60 -14 -60 -8 0 -18 -4 -21 -10 -4 -6 12 -10 39 -10 25 0 46 5
46 10 0 6 -7 10 -15 10 -12 0 -15 14 -15 70 0 39 -3 69 -7 69 -5 -1 -16 -3
-25 -6z"/>
<path d="M1230 1560 c-31 -31 -23 -118 13 -141 48 -32 90 83 51 139 -19 27
-38 28 -64 2z m48 -12 c17 -17 15 -80 -3 -104 -15 -19 -15 -19 -30 0 -15 20
-20 72 -9 100 7 19 25 21 42 4z"/>
<path d="M1403 1573 c-7 -3 -13 -9 -13 -14 0 -5 6 -8 13 -6 8 1 13 -16 15 -55
2 -46 0 -58 -12 -58 -8 0 -18 -4 -21 -10 -4 -6 12 -10 39 -10 25 0 46 5 46 10
0 6 -7 10 -15 10 -16 0 -18 13 -15 91 1 45 -5 52 -37 42z"/>
<path d="M1560 1565 c-18 -22 -23 -82 -10 -115 31 -76 104 -16 86 72 -11 55
-48 76 -76 43z m56 -42 c8 -42 -5 -88 -26 -88 -21 0 -34 46 -26 88 5 27 12 37
26 37 14 0 21 -10 26 -37z"/>
<path d="M1066 1274 c-16 -15 -19 -32 -18 -89 1 -34 34 -67 58 -58 19 7 41 52
38 81 -1 12 -2 28 -3 36 -1 19 -29 46 -46 46 -7 0 -21 -7 -29 -16z m54 -28 c9
-24 7 -47 -5 -87 -7 -21 -13 -23 -35 -9 -14 9 -18 88 -5 110 11 18 35 10 45
-14z"/>
<path d="M1236 1281 c-14 -5 -16 -10 -8 -15 7 -4 12 -4 12 1 0 4 4 1 9 -7 4
-8 7 -33 6 -55 -4 -56 -3 -55 -20 -55 -8 0 -15 -4 -15 -10 0 -5 21 -10 46 -10
27 0 43 4 39 10 -3 6 -12 10 -20 10 -10 0 -14 13 -13 48 1 97 1 98 -36 83z"/>
<path d="M1395 1270 c-22 -24 -24 -105 -4 -125 46 -44 96 14 79 89 -13 58 -43
72 -75 36z m50 -12 c11 -29 12 -65 3 -90 -11 -30 -15 -32 -37 -19 -15 9 -20
89 -7 110 10 15 35 14 41 -1z"/>
<path d="M1568 1283 c-10 -2 -18 -9 -18 -15 0 -5 7 -8 15 -4 17 6 17 7 19 -58
1 -39 -2 -50 -16 -54 -34 -9 -18 -22 28 -22 27 0 43 4 39 10 -3 6 -12 10 -19
10 -8 0 -13 17 -13 53 -1 96 1 90 -35 80z"/>
</g>
</svg>
